# xmcd
#
# Track frame offsets:
#	150
#	5040
#	25402
#	56130
#	77928
#	95531
#	130187
#	145136
#	159035
#	181407
#	203029
#	205470
#	229303
#	254984
#
# Disc length: 3418 seconds
#
# Revision: 1
# Processed by: cddbd v1.5.1PL2 Copyright (c) Steve Scherf et al.
# Submitted via: EasyCDDAExtractor 9.0.0.1
#
DISCID=cc0d580e
DTITLE=Saxon - Norje Havsbad Sweden Rock Festival 09-06-05
DYEAR=2005
DGENRE=Hard Rock
TTITLE0=Radio DJ Intro
TTITLE1=Strong Arm Of The Law
TTITLE2=Solid Ball Of Rock
TTITLE3=And The Bands Played On
TTITLE4=Motorcycle Man
TTITLE5=The Eagle Has Landed
TTITLE6=Dallas 1 PM
TTITLE7=Dallas 1 PM Cont
TTITLE8=747 (Strangers In The Night)
TTITLE9=Princess Of The Night
TTITLE10=Radio DJ
TTITLE11=Denim and Leather
TTITLE12=Wheels Of Steel
TTITLE13=Radio DJ Outro
EXTD=
EXTT0=
EXTT1=
EXTT2=
EXTT3=
EXTT4=
EXTT5=
EXTT6=
EXTT7=
EXTT8=
EXTT9=
EXTT10=
EXTT11=
EXTT12=
EXTT13=
PLAYORDER=
